<svg width="111" height="37" viewBox="0 0 111 37" fill="none" xmlns="http://www.w3.org/2000/svg">
<path d="M19.0413 23.2753C18.9965 23.1876 18.9624 23.12 18.9275 23.053C18.4969 22.2265 17.4594 21.6899 16.5381 21.8168C15.747 21.9258 15.0879 22.5835 14.8563 23.5121C14.6066 24.5134 14.7869 25.4787 15.1471 26.4172C15.7346 27.9477 16.6649 29.2568 17.8108 30.4152C18.6034 31.2163 19.2354 31.2027 20.0155 30.3877C21.0984 29.2561 21.9773 27.9855 22.5871 26.5374C22.9465 25.6843 23.2111 24.8054 23.2512 23.8724C23.2803 23.1986 23.1934 22.5496 22.8099 21.9712C22.3228 21.2368 21.5215 21.0204 20.7335 21.4082C20.2435 21.6492 19.8563 22.0092 19.5505 22.4557C19.3752 22.7117 19.222 22.9827 19.0413 23.2753ZM34.2937 27.5776C34.2757 28.8396 33.9913 30.0418 33.4102 31.1589C32.4241 33.0542 30.9975 34.5232 29.0876 35.5079C27.2049 36.4786 25.2756 36.5896 23.3042 35.8169C22.504 35.5031 21.7061 35.1791 20.9259 34.8195C19.5082 34.1659 18.0965 34.1721 16.6467 34.715C15.6285 35.0964 14.5951 35.4441 13.5509 35.7461C12.4696 36.059 11.3565 36.1733 10.2282 36.0446C9.25286 35.9333 8.42888 35.5013 7.71496 34.8475C6.80441 34.0138 6.0758 33.0403 5.61606 31.8922C5.02683 30.4209 5.16839 29.0015 6.02627 27.6609C6.69786 26.6112 7.60465 25.7738 8.48308 24.9074C9.12165 24.2777 9.7468 23.631 10.335 22.9545C11.0136 22.1738 11.4189 21.2316 11.7548 20.2637C12.0666 19.3656 12.3498 18.4577 12.6575 17.5582C12.8798 16.9083 13.2878 16.3677 13.6909 15.8198C14.6614 14.5009 16.0457 13.9238 17.5742 13.5841C19.3861 13.1813 20.9651 13.7007 22.3125 14.8925C23.1416 15.6256 23.8592 16.4845 24.6309 17.2831C25.9453 18.6433 27.3396 19.9137 28.9016 20.9867C29.6792 21.5208 30.4952 21.9996 31.2664 22.5423C32.3697 23.319 33.3006 24.2613 33.8686 25.5122C34.1662 26.1674 34.2837 26.8619 34.2937 27.5776Z" fill="#332C22"/>
<path d="M16.5036 8.86572C16.5066 9.87589 16.3276 10.9667 15.8489 11.9916C15.3366 13.0877 14.5954 13.9548 13.3766 14.2921C12.3737 14.5699 11.4478 14.3462 10.5846 13.807C9.44908 13.0979 8.68115 12.0688 8.11005 10.8852C7.28072 9.16633 6.96108 7.34793 7.13107 5.44764C7.23147 4.3251 7.54891 3.27584 8.17609 2.32145C9.25769 0.675589 11.2017 0.210394 12.8922 1.21194C13.9889 1.86178 14.7571 2.81045 15.3412 3.91855C16.1373 5.42867 16.5166 7.04378 16.5036 8.86572Z" fill="#332C22"/>
<path d="M28.308 5.856C28.3097 7.9143 27.9298 9.64128 26.9935 11.2214C26.4701 12.105 25.8006 12.8571 24.8748 13.3408C23.5217 14.0479 22.0321 13.7888 20.9698 12.683C20.1289 11.8078 19.6727 10.7423 19.4282 9.57621C19.006 7.56023 19.2239 5.591 19.9378 3.6756C20.2833 2.74858 20.7881 1.90023 21.5136 1.21585C22.182 0.585231 22.9437 0.0912757 23.8928 0.0124505C25.1002 -0.0878417 26.0482 0.423889 26.8062 1.32832C27.5873 2.26056 27.9774 3.3661 28.171 4.54616C28.2545 5.05496 28.2796 5.57334 28.308 5.856Z" fill="#332C22"/>
<path d="M0 15.7781C0.0167064 14.8588 0.192151 13.9946 0.738721 13.2448C1.45284 12.2649 2.45267 11.9035 3.63395 11.9775C4.8292 12.0524 5.84667 12.5687 6.76017 13.2971C8.38733 14.5946 9.46346 16.2509 9.89159 18.3005C10.0811 19.2071 10.0952 20.1223 9.77801 21.0054C9.23275 22.5238 7.98884 23.3079 6.36765 23.1824C5.35904 23.1043 4.47127 22.701 3.65668 22.1269C1.90079 20.8892 0.770297 19.2067 0.197874 17.1503C0.0749738 16.7088 0.0630459 16.2363 0 15.7781Z" fill="#332C22"/>
<path d="M36.9429 12.9105C36.6709 15.7658 35.5093 17.9729 33.2566 19.5626C32.631 20.0041 31.9274 20.2596 31.159 20.3375C29.8595 20.4692 28.678 19.7377 28.1894 18.4859C27.7601 17.3854 27.7851 16.2593 28.0552 15.1389C28.5749 12.9822 29.7342 11.2401 31.556 9.96291C32.3625 9.39753 33.2775 9.16672 34.2614 9.24883C35.4051 9.34422 36.372 10.2024 36.7063 11.4644C36.8415 11.9746 36.88 12.5102 36.9429 12.9105Z" fill="#332C22"/>
<path d="M90.4988 22.3808H93.1273L89.6618 26.5739L93.4324 31.1268H90.7257L87.1506 26.6912V31.1268H84.7646V22.3808H87.1506V26.6286L90.4988 22.3808Z" fill="#332C22"/>
<path d="M83.1148 26.7382C83.1148 27.4683 83.0157 28.115 82.8175 28.6782C82.6245 29.2415 82.3403 29.7187 81.9648 30.1098C81.5945 30.4958 81.146 30.7878 80.6193 30.986C80.0977 31.1842 79.5084 31.2833 78.8513 31.2833C78.2359 31.2833 77.67 31.1842 77.1537 30.986C76.6426 30.7878 76.1967 30.4958 75.816 30.1098C75.4405 29.7187 75.1485 29.2415 74.9399 28.6782C74.7365 28.115 74.6348 27.4683 74.6348 26.7382C74.6348 25.7681 74.8069 24.9467 75.1511 24.274C75.4953 23.6012 75.9855 23.0901 76.6218 22.7407C77.258 22.3913 78.0169 22.2165 78.8982 22.2165C79.717 22.2165 80.442 22.3913 81.073 22.7407C81.7093 23.0901 82.2073 23.6012 82.5672 24.274C82.9322 24.9467 83.1148 25.7681 83.1148 26.7382ZM77.0677 26.7382C77.0677 27.3118 77.1303 27.7943 77.2554 28.1854C77.3806 28.5765 77.5762 28.8712 77.8421 29.0694C78.1081 29.2676 78.4549 29.3667 78.8826 29.3667C79.305 29.3667 79.6466 29.2676 79.9074 29.0694C80.1734 28.8712 80.3663 28.5765 80.4863 28.1854C80.6114 27.7943 80.674 27.3118 80.674 26.7382C80.674 26.1593 80.6114 25.6795 80.4863 25.2988C80.3663 24.9128 80.1734 24.6234 79.9074 24.4304C79.6414 24.2375 79.2946 24.141 78.8669 24.141C78.2359 24.141 77.777 24.3574 77.4901 24.7903C77.2085 25.2231 77.0677 25.8724 77.0677 26.7382Z" fill="#332C22"/>
<path d="M72.9832 22.3808V31.1268H70.5894V24.1722H67.4211V31.1268H65.0352V22.3808H72.9832Z" fill="#332C22"/>
<path d="M59.2531 22.2009C60.4265 22.2009 61.3261 22.4564 61.952 22.9675C62.5778 23.4786 62.8907 24.2557 62.8907 25.2987V31.1268H61.2245L60.7629 29.9377H60.7003C60.45 30.2506 60.1944 30.5062 59.9337 30.7044C59.6729 30.9025 59.373 31.0486 59.034 31.1424C58.6951 31.2363 58.283 31.2832 57.798 31.2832C57.2817 31.2832 56.8176 31.1842 56.4056 30.986C55.9988 30.7878 55.678 30.4853 55.4433 30.0785C55.2087 29.6665 55.0913 29.145 55.0913 28.5139C55.0913 27.5856 55.4173 26.9024 56.0692 26.4644C56.7211 26.0211 57.6989 25.7759 59.0028 25.729L60.5204 25.6821V25.2987C60.5204 24.8398 60.4004 24.5034 60.1605 24.2896C59.9206 24.0758 59.5869 23.9689 59.1592 23.9689C58.7368 23.9689 58.3222 24.0288 57.9154 24.1488C57.5086 24.2687 57.1018 24.42 56.695 24.6025L55.9049 22.991C56.369 22.7459 56.888 22.5529 57.4616 22.4121C58.0405 22.2713 58.6377 22.2009 59.2531 22.2009ZM60.5204 27.0745L59.5973 27.1058C58.8254 27.1267 58.2883 27.2649 57.9858 27.5204C57.6885 27.776 57.5399 28.1124 57.5399 28.5296C57.5399 28.8947 57.6468 29.1554 57.8606 29.3119C58.0744 29.4631 58.3535 29.5387 58.6977 29.5387C59.2088 29.5387 59.639 29.3875 59.9884 29.085C60.3431 28.7825 60.5204 28.3523 60.5204 27.7942V27.0745Z" fill="#332C22"/>
<path d="M53.2921 31.1268H50.8748V21.7081H48.0742C48.0116 22.1983 47.9438 22.7329 47.8708 23.3118C47.7978 23.8907 47.7222 24.4748 47.644 25.0641C47.5657 25.6534 47.4823 26.2141 47.3936 26.746C47.3102 27.278 47.2267 27.7447 47.1433 28.1463C47.0077 28.8139 46.8226 29.3823 46.5879 29.8517C46.3584 30.3159 46.0429 30.6705 45.6413 30.9156C45.2449 31.1607 44.726 31.2833 44.0845 31.2833C43.8707 31.2833 43.6647 31.2676 43.4665 31.2364C43.2736 31.2051 43.0936 31.1633 42.9268 31.1112V29.1242C43.0624 29.1711 43.198 29.2102 43.3335 29.2415C43.4691 29.2676 43.6178 29.2806 43.7795 29.2806C43.9881 29.2806 44.1602 29.2128 44.2958 29.0772C44.4366 28.9364 44.5617 28.6991 44.6713 28.3654C44.7808 28.0264 44.8903 27.5596 44.9998 26.9651C45.0468 26.7043 45.1093 26.3366 45.1876 25.862C45.2658 25.3822 45.3545 24.8216 45.4536 24.1801C45.5526 23.5334 45.6543 22.8294 45.7586 22.0679C45.8682 21.3065 45.9725 20.5138 46.0716 19.6898H53.2921V31.1268Z" fill="#332C22"/>
<path d="M107.029 7.5535C108.203 7.5535 109.103 7.80905 109.728 8.32014C110.354 8.83124 110.667 9.60831 110.667 10.6514V16.4794H109.001L108.539 15.2903H108.477C108.226 15.6032 107.971 15.8588 107.71 16.057C107.449 16.2552 107.149 16.4012 106.81 16.4951C106.471 16.5889 106.059 16.6359 105.574 16.6359C105.058 16.6359 104.594 16.5368 104.182 16.3386C103.775 16.1404 103.454 15.8379 103.22 15.4311C102.985 15.0191 102.868 14.4976 102.868 13.8666C102.868 12.9383 103.194 12.2551 103.846 11.817C104.497 11.3737 105.475 11.1286 106.779 11.0816L108.297 11.0347V10.6514C108.297 10.1924 108.177 9.85603 107.937 9.64221C107.697 9.42838 107.363 9.32147 106.936 9.32147C106.513 9.32147 106.099 9.38145 105.692 9.5014C105.285 9.62135 104.878 9.77259 104.471 9.95512L103.681 8.34361C104.145 8.09849 104.664 7.90553 105.238 7.76472C105.817 7.6239 106.414 7.5535 107.029 7.5535ZM108.297 12.4272L107.374 12.4584C106.602 12.4793 106.065 12.6175 105.762 12.8731C105.465 13.1286 105.316 13.465 105.316 13.8822C105.316 14.2473 105.423 14.508 105.637 14.6645C105.851 14.8157 106.13 14.8914 106.474 14.8914C106.985 14.8914 107.415 14.7401 107.765 14.4376C108.119 14.1352 108.297 13.7049 108.297 13.1469V12.4272Z" fill="#332C22"/>
<path d="M99.5813 7.73342H102.21L98.7443 11.9265L102.515 16.4794H99.8082L96.2331 12.0438V16.4794H93.8472V7.73342H96.2331V11.9812L99.5813 7.73342Z" fill="#332C22"/>
<path d="M85.9465 7.73342V11.0973H89.2791V7.73342H91.6651V16.4794H89.2791V12.8731H85.9465V16.4794H83.5605V7.73342H85.9465Z" fill="#332C22"/>
<path d="M74.6417 7.73342V11.1911C74.6417 11.3685 74.6339 11.5927 74.6183 11.8639C74.6078 12.1299 74.5922 12.4011 74.5713 12.6775C74.5505 12.9539 74.5296 13.2016 74.5087 13.4207C74.4879 13.6397 74.4722 13.7883 74.4618 13.8666L78.4984 7.73342H81.3694V16.4794H79.0617V12.9904C79.0617 12.7036 79.0721 12.388 79.093 12.0438C79.1138 11.6944 79.1373 11.3658 79.1634 11.0581C79.1894 10.7504 79.2077 10.5184 79.2181 10.3619L75.1972 16.4794H72.334V7.73342H74.6417Z" fill="#332C22"/>
<path d="M71.0201 9.52486H68.1569V16.4794H65.7709V9.52486H62.8999V7.73342H71.0201V9.52486Z" fill="#332C22"/>
<path d="M58.0026 7.5535C59.176 7.5535 60.0757 7.80905 60.7015 8.32014C61.3273 8.83124 61.6402 9.60831 61.6402 10.6514V16.4794H59.974L59.5124 15.2903H59.4498C59.1995 15.6032 58.9439 15.8588 58.6832 16.057C58.4224 16.2552 58.1225 16.4012 57.7836 16.4951C57.4446 16.5889 57.0326 16.6359 56.5475 16.6359C56.0312 16.6359 55.5671 16.5368 55.1551 16.3386C54.7483 16.1404 54.4275 15.8379 54.1928 15.4311C53.9582 15.0191 53.8408 14.4976 53.8408 13.8666C53.8408 12.9383 54.1668 12.2551 54.8187 11.817C55.4706 11.3737 56.4484 11.1286 57.7523 11.0816L59.2699 11.0347V10.6514C59.2699 10.1924 59.15 9.85603 58.91 9.64221C58.6701 9.42838 58.3364 9.32147 57.9087 9.32147C57.4863 9.32147 57.0717 9.38145 56.6649 9.5014C56.2581 9.62135 55.8513 9.77259 55.4445 9.95512L54.6544 8.34361C55.1186 8.09849 55.6375 7.90553 56.2112 7.76472C56.79 7.6239 57.3872 7.5535 58.0026 7.5535ZM59.2699 12.4272L58.3468 12.4584C57.5749 12.4793 57.0378 12.6175 56.7353 12.8731C56.438 13.1286 56.2894 13.465 56.2894 13.8822C56.2894 14.2473 56.3963 14.508 56.6101 14.6645C56.8239 14.8157 57.103 14.8914 57.4472 14.8914C57.9583 14.8914 58.3885 14.7401 58.7379 14.4376C59.0926 14.1352 59.2699 13.7049 59.2699 13.1469V12.4272Z" fill="#332C22"/>
<path d="M53.4883 16.4794H50.719L48.0592 12.1534L45.3994 16.4794H42.8022L46.5963 10.581L43.0448 5.04239H45.7202L48.1844 9.15722L50.6017 5.04239H53.2145L49.6238 10.714L53.4883 16.4794Z" fill="#332C22"/>
</svg>
